<mxfile host="65bd71144e">
    <diagram id="kKbaQHDPACZrchQKF-Te" name="Page-1">
        <mxGraphModel dx="1412" dy="324" grid="1" gridSize="10" guides="1" tooltips="1" connect="1" arrows="1" fold="1" page="1" pageScale="1" pageWidth="850" pageHeight="1100" math="0" shadow="0">
            <root>
                <mxCell id="0"/>
                <mxCell id="1" parent="0"/>
                <mxCell id="7IHg9uU4U2I5uhd31xPX-90" value="" style="endArrow=classic;html=1;rounded=0;strokeWidth=3;fillColor=#fff2cc;strokeColor=#d6b656;labelBorderColor=default;" parent="1" source="7IHg9uU4U2I5uhd31xPX-138" edge="1">
                    <mxGeometry width="50" height="50" relative="1" as="geometry">
                        <mxPoint x="-800" y="65" as="sourcePoint"/>
                        <mxPoint x="-800" y="1580" as="targetPoint"/>
                    </mxGeometry>
                </mxCell>
                <mxCell id="7IHg9uU4U2I5uhd31xPX-108" value="&lt;font size=&quot;1&quot; style=&quot;&quot;&gt;&lt;b style=&quot;font-size: 17px;&quot;&gt;Front-end&lt;/b&gt;&lt;/font&gt;" style="swimlane;fontStyle=0;childLayout=stackLayout;horizontal=1;startSize=26;fillColor=default;horizontalStack=0;resizeParent=1;resizeParentMax=0;resizeLast=0;collapsible=1;marginBottom=0;html=1;glass=0;labelBackgroundColor=none;labelBorderColor=none;fillStyle=solid;strokeColor=default;fontFamily=Helvetica;" parent="1" vertex="1">
                    <mxGeometry x="-715" y="1440" width="580" height="126" as="geometry"/>
                </mxCell>
                <mxCell id="7IHg9uU4U2I5uhd31xPX-104" value="Index (&amp;includes)" style="swimlane;fontStyle=1;align=center;verticalAlign=top;childLayout=stackLayout;horizontal=1;startSize=26;horizontalStack=0;resizeParent=1;resizeParentMax=0;resizeLast=0;collapsible=1;marginBottom=0;fillColor=default;gradientColor=none;strokeColor=default;swimlaneLine=0;" parent="7IHg9uU4U2I5uhd31xPX-108" vertex="1">
                    <mxGeometry y="26" width="580" height="100" as="geometry"/>
                </mxCell>
                <mxCell id="7IHg9uU4U2I5uhd31xPX-105" value="header.php&#10;head.php&#10;$_GET['page'].php&#10;footer.php" style="text;strokeColor=default;fillColor=default;align=left;verticalAlign=top;spacingLeft=4;spacingRight=4;overflow=hidden;rotatable=0;points=[[0,0.5],[1,0.5]];portConstraint=eastwest;gradientColor=none;swimlaneLine=0;" parent="7IHg9uU4U2I5uhd31xPX-104" vertex="1">
                    <mxGeometry y="26" width="580" height="74" as="geometry"/>
                </mxCell>
                <mxCell id="7IHg9uU4U2I5uhd31xPX-112" value="Back-end" style="swimlane;fontStyle=1;childLayout=stackLayout;horizontal=1;startSize=26;fillColor=default;horizontalStack=0;resizeParent=1;resizeParentMax=0;resizeLast=0;collapsible=1;marginBottom=0;glass=0;labelBackgroundColor=none;labelBorderColor=none;fillStyle=solid;strokeColor=default;fontFamily=Helvetica;labelPosition=center;verticalLabelPosition=middle;align=center;verticalAlign=middle;fontSize=18;html=1;" parent="1" vertex="1">
                    <mxGeometry x="-760" y="34" width="660" height="1346" as="geometry"/>
                </mxCell>
                <mxCell id="7IHg9uU4U2I5uhd31xPX-1" value="Model" style="swimlane;fontStyle=1;align=center;verticalAlign=top;childLayout=stackLayout;horizontal=1;startSize=26;horizontalStack=0;resizeParent=1;resizeParentMax=0;resizeLast=0;collapsible=1;marginBottom=0;fillColor=default;gradientColor=none;strokeColor=default;swimlaneLine=0;" parent="7IHg9uU4U2I5uhd31xPX-112" vertex="1">
                    <mxGeometry y="26" width="660" height="180" as="geometry"/>
                </mxCell>
                <mxCell id="7IHg9uU4U2I5uhd31xPX-2" value="-pdo : ?PDO&#10;-stmt : mixed" style="text;strokeColor=default;fillColor=default;align=left;verticalAlign=top;spacingLeft=4;spacingRight=4;overflow=hidden;rotatable=0;points=[[0,0.5],[1,0.5]];portConstraint=eastwest;gradientColor=none;swimlaneLine=0;" parent="7IHg9uU4U2I5uhd31xPX-1" vertex="1">
                    <mxGeometry y="26" width="660" height="44" as="geometry"/>
                </mxCell>
                <mxCell id="7IHg9uU4U2I5uhd31xPX-4" value="+setStmt(mixed $query): void&#10;+setPDO(?PDO $pdo): void&#10;+getStmt(): mixed&#10;+getPdo(): ?PDO&#10;+getError(Exception $error, int $mode = RAW) : string&#10;+printLog(string $msg): bool&#10;+rmdir_r(string $path): bool" style="text;strokeColor=default;fillColor=default;align=left;verticalAlign=top;spacingLeft=4;spacingRight=4;overflow=hidden;rotatable=0;points=[[0,0.5],[1,0.5]];portConstraint=eastwest;gradientColor=none;swimlaneLine=0;" parent="7IHg9uU4U2I5uhd31xPX-1" vertex="1">
                    <mxGeometry y="70" width="660" height="110" as="geometry"/>
                </mxCell>
                <mxCell id="7IHg9uU4U2I5uhd31xPX-40" value="PostModel" style="swimlane;fontStyle=1;align=center;verticalAlign=top;childLayout=stackLayout;horizontal=1;startSize=26;horizontalStack=0;resizeParent=1;resizeParentMax=0;resizeLast=0;collapsible=1;marginBottom=0;fillColor=default;gradientColor=none;strokeColor=default;swimlaneLine=0;" parent="7IHg9uU4U2I5uhd31xPX-112" vertex="1">
                    <mxGeometry y="206" width="660" height="160" as="geometry"/>
                </mxCell>
                <mxCell id="7IHg9uU4U2I5uhd31xPX-41" value="" style="text;strokeColor=default;fillColor=default;align=left;verticalAlign=top;spacingLeft=4;spacingRight=4;overflow=hidden;rotatable=0;points=[[0,0.5],[1,0.5]];portConstraint=eastwest;gradientColor=none;swimlaneLine=0;" parent="7IHg9uU4U2I5uhd31xPX-40" vertex="1">
                    <mxGeometry y="26" width="660" height="26" as="geometry"/>
                </mxCell>
                <mxCell id="7IHg9uU4U2I5uhd31xPX-43" value="+insertPost(int $authorId, string $content, ?$mediaUrl = null): int | Exception&#10;+selectPosts(): array | Exception&#10;+selectPostsByUserId(int $userId): array | Exception&#10;+selectPost(int $postId): array | Exception&#10;+selectNextPostId(): int | Exception&#10;+deletePosts(): int | Exception&#10;+deletePost(int $id): bool | Exception" style="text;strokeColor=default;fillColor=default;align=left;verticalAlign=top;spacingLeft=4;spacingRight=4;overflow=hidden;rotatable=0;points=[[0,0.5],[1,0.5]];portConstraint=eastwest;gradientColor=none;swimlaneLine=0;" parent="7IHg9uU4U2I5uhd31xPX-40" vertex="1">
                    <mxGeometry y="52" width="660" height="108" as="geometry"/>
                </mxCell>
                <mxCell id="7IHg9uU4U2I5uhd31xPX-32" value="InstallModel" style="swimlane;fontStyle=1;align=center;verticalAlign=top;childLayout=stackLayout;horizontal=1;startSize=26;horizontalStack=0;resizeParent=1;resizeParentMax=0;resizeLast=0;collapsible=1;marginBottom=0;fillColor=default;gradientColor=none;strokeColor=default;swimlaneLine=0;" parent="7IHg9uU4U2I5uhd31xPX-112" vertex="1">
                    <mxGeometry y="366" width="660" height="90" as="geometry"/>
                </mxCell>
                <mxCell id="7IHg9uU4U2I5uhd31xPX-33" value="" style="text;strokeColor=default;fillColor=default;align=left;verticalAlign=top;spacingLeft=4;spacingRight=4;overflow=hidden;rotatable=0;points=[[0,0.5],[1,0.5]];portConstraint=eastwest;gradientColor=none;swimlaneLine=0;" parent="7IHg9uU4U2I5uhd31xPX-32" vertex="1">
                    <mxGeometry y="26" width="660" height="26" as="geometry"/>
                </mxCell>
                <mxCell id="7IHg9uU4U2I5uhd31xPX-35" value="+installDB(): bool | Exception&#10;+isDBInstalled() : bool | Exception&#10;" style="text;strokeColor=default;fillColor=default;align=left;verticalAlign=top;spacingLeft=4;spacingRight=4;overflow=hidden;rotatable=0;points=[[0,0.5],[1,0.5]];portConstraint=eastwest;gradientColor=none;swimlaneLine=0;" parent="7IHg9uU4U2I5uhd31xPX-32" vertex="1">
                    <mxGeometry y="52" width="660" height="38" as="geometry"/>
                </mxCell>
                <mxCell id="7IHg9uU4U2I5uhd31xPX-36" value="UserModel" style="swimlane;fontStyle=1;align=center;verticalAlign=top;childLayout=stackLayout;horizontal=1;startSize=26;horizontalStack=0;resizeParent=1;resizeParentMax=0;resizeLast=0;collapsible=1;marginBottom=0;fillColor=default;gradientColor=none;strokeColor=default;swimlaneLine=0;" parent="7IHg9uU4U2I5uhd31xPX-112" vertex="1">
                    <mxGeometry y="456" width="660" height="210" as="geometry"/>
                </mxCell>
                <mxCell id="7IHg9uU4U2I5uhd31xPX-37" value="" style="text;strokeColor=default;fillColor=default;align=left;verticalAlign=top;spacingLeft=4;spacingRight=4;overflow=hidden;rotatable=0;points=[[0,0.5],[1,0.5]];portConstraint=eastwest;gradientColor=none;swimlaneLine=0;" parent="7IHg9uU4U2I5uhd31xPX-36" vertex="1">
                    <mxGeometry y="26" width="660" height="26" as="geometry"/>
                </mxCell>
                <mxCell id="7IHg9uU4U2I5uhd31xPX-39" value="+insertUser(string $nickname, string $password, bool $is_mod): bool | Exception&#10;+insertFocuser(int $focuserId, int $focusedId): bool | Exception&#10;+selectUsersByName(string $nickname): array | Exception&#10;+selectUserById(int $userId): array | Exception&#10;+selectUserByName(string $nickname): array | Exception&#10;+selectFocusedById(int $userId): array | Exception&#10;+selectFocusersById(int $userId): array | Exception&#10;+updateProfilePic(int $userId, string $media_url): bool | Exception&#10;+deleteUser(int $id): bool | Exception&#10;+deleteFocus(int $focuserId, int $focusedId): bool | Exception" style="text;strokeColor=default;fillColor=default;align=left;verticalAlign=top;spacingLeft=4;spacingRight=4;overflow=hidden;rotatable=0;points=[[0,0.5],[1,0.5]];portConstraint=eastwest;gradientColor=none;swimlaneLine=0;" parent="7IHg9uU4U2I5uhd31xPX-36" vertex="1">
                    <mxGeometry y="52" width="660" height="158" as="geometry"/>
                </mxCell>
                <mxCell id="7IHg9uU4U2I5uhd31xPX-5" value="Controller&#10;" style="swimlane;fontStyle=1;align=center;verticalAlign=top;childLayout=stackLayout;horizontal=1;startSize=26;horizontalStack=0;resizeParent=1;resizeParentMax=0;resizeLast=0;collapsible=1;marginBottom=0;fillColor=default;gradientColor=none;strokeColor=default;swimlaneLine=0;" parent="7IHg9uU4U2I5uhd31xPX-112" vertex="1">
                    <mxGeometry y="666" width="660" height="130" as="geometry"/>
                </mxCell>
                <mxCell id="7IHg9uU4U2I5uhd31xPX-6" value="-int $state = STATE_NONE&#10;-string $message" style="text;strokeColor=default;fillColor=default;align=left;verticalAlign=top;spacingLeft=4;spacingRight=4;overflow=hidden;rotatable=0;points=[[0,0.5],[1,0.5]];portConstraint=eastwest;gradientColor=none;swimlaneLine=0;" parent="7IHg9uU4U2I5uhd31xPX-5" vertex="1">
                    <mxGeometry y="26" width="660" height="44" as="geometry"/>
                </mxCell>
                <mxCell id="7IHg9uU4U2I5uhd31xPX-8" value="+setState(int $state, string $message): void&#10;+getState(): array&#10;+printLog(string $msg): bool&#10;" style="text;strokeColor=default;fillColor=default;align=left;verticalAlign=top;spacingLeft=4;spacingRight=4;overflow=hidden;rotatable=0;points=[[0,0.5],[1,0.5]];portConstraint=eastwest;gradientColor=none;swimlaneLine=0;" parent="7IHg9uU4U2I5uhd31xPX-5" vertex="1">
                    <mxGeometry y="70" width="660" height="60" as="geometry"/>
                </mxCell>
                <mxCell id="7IHg9uU4U2I5uhd31xPX-22" value="UserController" style="swimlane;fontStyle=1;align=center;verticalAlign=top;childLayout=stackLayout;horizontal=1;startSize=26;horizontalStack=0;resizeParent=1;resizeParentMax=0;resizeLast=0;collapsible=1;marginBottom=0;fillColor=default;gradientColor=none;strokeColor=default;swimlaneLine=0;" parent="7IHg9uU4U2I5uhd31xPX-112" vertex="1">
                    <mxGeometry y="796" width="660" height="240" as="geometry"/>
                </mxCell>
                <mxCell id="7IHg9uU4U2I5uhd31xPX-23" value=" " style="text;strokeColor=default;fillColor=default;align=left;verticalAlign=top;spacingLeft=4;spacingRight=4;overflow=hidden;rotatable=0;points=[[0,0.5],[1,0.5]];portConstraint=eastwest;gradientColor=none;swimlaneLine=0;" parent="7IHg9uU4U2I5uhd31xPX-22" vertex="1">
                    <mxGeometry y="26" width="660" height="32" as="geometry"/>
                </mxCell>
                <mxCell id="7IHg9uU4U2I5uhd31xPX-25" value="+addUser(string $nickname, string $password, bool $is_mod = false): bool&#10;+addFocus(int $focuserId, $focusedId): bool&#10;+userConnected(): int&#10;+userFocuses(int $focuserId, int $focusedId): bool&#10;+getUserById(int $userId): object | false&#10;+getUsersByName(string $nickname): array | false&#10;+getUserByCredentials(string $username, string $password): object | false&#10;+getFocusersById(int $userId): array | false&#10;+getFocusedById(int $userId): array | false&#10;+changeProfilePic(int $userId, string $mediaUrl): bool&#10;+removeUser(int $userId): bool&#10;+removeFocus(int $focuserId, int $focusedId): bool" style="text;strokeColor=default;fillColor=default;align=left;verticalAlign=top;spacingLeft=4;spacingRight=4;overflow=hidden;rotatable=0;points=[[0,0.5],[1,0.5]];portConstraint=eastwest;gradientColor=none;swimlaneLine=0;" parent="7IHg9uU4U2I5uhd31xPX-22" vertex="1">
                    <mxGeometry y="58" width="660" height="182" as="geometry"/>
                </mxCell>
                <mxCell id="7IHg9uU4U2I5uhd31xPX-17" value="InstallController" style="swimlane;fontStyle=1;align=center;verticalAlign=top;childLayout=stackLayout;horizontal=1;startSize=26;horizontalStack=0;resizeParent=1;resizeParentMax=0;resizeLast=0;collapsible=1;marginBottom=0;fillColor=default;gradientColor=none;strokeColor=default;swimlaneLine=0;" parent="7IHg9uU4U2I5uhd31xPX-112" vertex="1">
                    <mxGeometry y="1036" width="660" height="90" as="geometry"/>
                </mxCell>
                <mxCell id="7IHg9uU4U2I5uhd31xPX-18" value=" " style="text;strokeColor=default;fillColor=default;align=left;verticalAlign=top;spacingLeft=4;spacingRight=4;overflow=hidden;rotatable=0;points=[[0,0.5],[1,0.5]];portConstraint=eastwest;gradientColor=none;swimlaneLine=0;" parent="7IHg9uU4U2I5uhd31xPX-17" vertex="1">
                    <mxGeometry y="26" width="660" height="26" as="geometry"/>
                </mxCell>
                <mxCell id="7IHg9uU4U2I5uhd31xPX-20" value="+installDB(): bool | Exception&#10;+isDBInstalled() : bool" style="text;strokeColor=default;fillColor=default;align=left;verticalAlign=top;spacingLeft=4;spacingRight=4;overflow=hidden;rotatable=0;points=[[0,0.5],[1,0.5]];portConstraint=eastwest;gradientColor=none;swimlaneLine=0;" parent="7IHg9uU4U2I5uhd31xPX-17" vertex="1">
                    <mxGeometry y="52" width="660" height="38" as="geometry"/>
                </mxCell>
                <mxCell id="7IHg9uU4U2I5uhd31xPX-26" value="PostController" style="swimlane;fontStyle=1;align=center;verticalAlign=top;childLayout=stackLayout;horizontal=1;startSize=26;horizontalStack=0;resizeParent=1;resizeParentMax=0;resizeLast=0;collapsible=1;marginBottom=0;fillColor=default;gradientColor=none;strokeColor=default;swimlaneLine=0;" parent="7IHg9uU4U2I5uhd31xPX-112" vertex="1">
                    <mxGeometry y="1126" width="660" height="220" as="geometry"/>
                </mxCell>
                <mxCell id="7IHg9uU4U2I5uhd31xPX-27" value=" " style="text;strokeColor=default;fillColor=default;align=left;verticalAlign=top;spacingLeft=4;spacingRight=4;overflow=hidden;rotatable=0;points=[[0,0.5],[1,0.5]];portConstraint=eastwest;gradientColor=none;swimlaneLine=0;" parent="7IHg9uU4U2I5uhd31xPX-26" vertex="1">
                    <mxGeometry y="26" width="660" height="26" as="geometry"/>
                </mxCell>
                <mxCell id="7IHg9uU4U2I5uhd31xPX-29" value="+addPost(int $authorId, string $content, ?string $mediaUrl): int&#10;+addReaction(int $userId, int $postId, int $reactionId): bool&#10;+getPost(int $postId): array | false&#10;+getReaction(int $userId, int $postId): object | false&#10;+getReactionsCount(int $postId, int $reactionType): int | false&#10;+getAllPosts(): array | false&#10;+getPostsByUserId(int $userId): array | false&#10;+getNextPostId(): int | false&#10;+clearPosts(): int&#10;+removePost(int $postId): bool&#10;+removeReaction(int $userId, int $postId): bool&#10;" style="text;strokeColor=default;fillColor=default;align=left;verticalAlign=top;spacingLeft=4;spacingRight=4;overflow=hidden;rotatable=0;points=[[0,0.5],[1,0.5]];portConstraint=eastwest;gradientColor=none;swimlaneLine=0;" parent="7IHg9uU4U2I5uhd31xPX-26" vertex="1">
                    <mxGeometry y="52" width="660" height="168" as="geometry"/>
                </mxCell>
                <mxCell id="7IHg9uU4U2I5uhd31xPX-138" value="&lt;span style=&quot;&quot;&gt;Include order&lt;/span&gt;" style="text;html=1;strokeColor=#000000;fillColor=none;align=center;verticalAlign=middle;whiteSpace=wrap;rounded=0;fontSize=17;fontFamily=Helvetica;labelBorderColor=default;labelBackgroundColor=default;strokeWidth=4;" parent="1" vertex="1">
                    <mxGeometry x="-830" y="20" width="60" height="40" as="geometry"/>
                </mxCell>
            </root>
        </mxGraphModel>
    </diagram>
</mxfile>